<svg xmlns="http://www.w3.org/2000/svg" xmlns:xlink="http://www.w3.org/1999/xlink" version="1.1" x="0px" y="0px" viewBox="0 0 100 125" style="enable-background:new 0 0 100 100;" xml:space="preserve"><path d="M71.4,32.2L71.4,32.2c0.1-0.7,0.1-1.3,0.1-1.9s0-1.2-0.1-1.8v-0.1c-1-10.9-10.1-19.5-21.2-19.5S30,17.5,29,28.3v0.1  c-0.1,0.6-0.1,1.2-0.1,1.8s0,1.2,0.1,1.8v0.1c1,10.8,10.1,19.4,21.2,19.4S70.4,43.1,71.4,32.2z M42.1,13.5c-1.6,2.2-3,5-3.8,8.3  h-4.6C35.4,18.2,38.4,15.3,42.1,13.5z M32.1,34.8c0-0.2-0.1-0.3-0.1-0.5c-0.1-0.3-0.1-0.6-0.2-0.9c-0.1-0.3-0.1-0.5-0.1-0.8  s-0.1-0.5-0.1-0.7c-0.1-0.5-0.1-1.1-0.1-1.6s0-1.1,0.1-1.6c0-0.3,0.1-0.5,0.1-0.7s0.1-0.5,0.1-0.8c0.1-0.3,0.1-0.6,0.2-0.9  c0-0.2,0.1-0.3,0.1-0.4c0.1-0.4,0.2-0.7,0.3-1.1h5.2c-0.3,1.8-0.5,3.7-0.5,5.7s0.2,3.8,0.5,5.7h-5.1C32.3,35.5,32.2,35.1,32.1,34.8z   M33.6,38.6h4.6c0.8,3.3,2.2,6.1,3.8,8.3C38.4,45.2,35.4,42.3,33.6,38.6z M48.8,48.6c-3.3-0.8-6.2-4.7-7.7-10h7.7V48.6z M48.8,35.9  h-8.3c-0.4-1.8-0.5-3.7-0.5-5.7s0.2-3.9,0.5-5.7h8.3V35.9z M48.8,21.8h-7.7c1.5-5.3,4.4-9.1,7.7-10V21.8z M68.2,25.7  c0,0.1,0,0.1,0,0.2s0,0.2,0.1,0.3c0.1,0.3,0.1,0.6,0.2,0.9c0,0.3,0.1,0.5,0.1,0.7v0.1c0,0.3,0.1,0.5,0.1,0.7  c0.1,0.5,0.1,1.1,0.1,1.6s0,1.1-0.1,1.6c0,0.3-0.1,0.5-0.1,0.7v0.1c0,0.3-0.1,0.5-0.1,0.7c-0.1,0.3-0.1,0.6-0.2,0.9  c0,0.1,0,0.2-0.1,0.3c0,0.1,0,0.1,0,0.2c-0.1,0.4-0.2,0.8-0.4,1.2h-5.2c0.3-1.8,0.5-3.7,0.5-5.7s-0.2-3.9-0.5-5.7h5.2  C68,24.9,68.1,25.3,68.2,25.7z M58.7,13.7c0.3,0.1,0.5,0.3,0.7,0.4c0.3,0.2,0.5,0.4,0.8,0.5c0.2,0.2,0.5,0.3,0.6,0.5  c0.3,0.2,0.5,0.4,0.7,0.5s0.5,0.4,0.6,0.5c0.3,0.2,0.5,0.5,0.7,0.6c0.2,0.2,0.4,0.4,0.5,0.5c0.2,0.2,0.5,0.5,0.6,0.7  c0.2,0.2,0.4,0.4,0.5,0.6c0.2,0.3,0.4,0.5,0.5,0.7c0.2,0.2,0.3,0.5,0.5,0.6c0.2,0.3,0.4,0.5,0.5,0.8c0.1,0.2,0.3,0.5,0.4,0.6  s0.1,0.2,0.1,0.3H62c-0.8-3.3-2.2-6.1-3.8-8.3C58.4,13.5,58.6,13.6,58.7,13.7z M51.5,11.8c3.3,0.8,6.2,4.7,7.7,10h-7.7V11.8z   M51.5,24.6h8.3c0.4,1.8,0.5,3.7,0.5,5.7s-0.2,3.9-0.5,5.7h-8.3V24.6z M51.5,48.6v-10h7.7C57.7,43.9,54.8,47.8,51.5,48.6z   M63.6,43.2c-0.2,0.2-0.4,0.4-0.5,0.5c-0.3,0.2-0.5,0.5-0.7,0.6c-0.2,0.2-0.5,0.4-0.6,0.5c-0.3,0.2-0.5,0.4-0.7,0.5  c-0.2,0.2-0.5,0.3-0.6,0.5c-0.3,0.2-0.5,0.4-0.8,0.5s-0.5,0.3-0.7,0.4c-0.1,0.1-0.3,0.1-0.4,0.2c1.6-2.2,3-5,3.8-8.3H67  c-0.1,0.1-0.1,0.2-0.1,0.3c-0.1,0.3-0.3,0.5-0.4,0.6c-0.2,0.3-0.4,0.5-0.5,0.8c-0.2,0.2-0.3,0.5-0.5,0.6c-0.2,0.3-0.4,0.5-0.5,0.7  c-0.2,0.2-0.4,0.4-0.5,0.6C63.9,42.7,63.8,42.9,63.6,43.2z"/><path d="M42.2,71.6l-0.6-10.5l-15-14.9l-1.5,1.3H25c-0.6,0.5-1.1,1.3-1.5,2.1v-7v-0.2c-0.5-3.5-3.1-6.9-6.9-6.9h-0.4  c-0.8-3.2-3.2-6.2-6.7-6.2H7.8c-0.1,0-0.2,0-0.3,0H6l0.3,22.6L23,80.1h-5.5v11h2.7v-8.3h24.9v8.3h2.7v-11h-5.7L42.2,71.6z   M16.4,38.1h0.2c2.2,0,3.7,2.3,4.2,4.6V52l-0.5-0.5l-3.9-4.2V38.1z M39.4,80.1H26.1l0,0l-17-29L8.8,32h0.6c2.2,0,3.7,2.3,4.2,4.6v12  l4.7,5L31.8,67l3.1-3.1l-8.7-8.7c-1.3-1.3-0.8-3.8,0.3-5.3L39,62.3l0.6,9.4L39.4,80.1L39.4,80.1z"/><path d="M93.9,30.6l-0.1-1.3l-1.3-0.1c-0.1,0-0.2,0-0.3,0h-1.8c-3.5,0-5.9,3-6.7,6.2h-0.4c-3.7,0-6.3,3.5-6.9,6.9v7.2  c-0.4-0.8-0.9-1.5-1.5-2.1l-1.5-1.3l-14.9,15l-0.6,10.6v8.4h-5.7v11h2.7v-8.3h24.9v8.3h2.7v-11H77l16.8-28.2L93.9,30.6z M79.3,42.6  c0.4-2.2,2-4.6,4.2-4.6h0.3v9.3l-3.9,4.2L79.3,52V42.6L79.3,42.6z M90.9,51.1l-17.2,29H60.5v-8.3l0.6-9.5l12.4-12.4  c1.2,1.5,1.5,4,0.3,5.3l-8.7,8.7l3.1,3.1l13.4-13.4l4.7-5V36.4c0.4-2.2,2-4.6,4.2-4.6h0.6L90.9,51.1z"/><text x="0" y="115" fill="#000000" font-size="5px" font-weight="bold" font-family="'Helvetica Neue', Helvetica, Arial-Unicode, Arial, Sans-serif">Created by orlangiodo</text><text x="0" y="120" fill="#000000" font-size="5px" font-weight="bold" font-family="'Helvetica Neue', Helvetica, Arial-Unicode, Arial, Sans-serif">from the Noun Project</text></svg>