<svg xmlns="http://www.w3.org/2000/svg" xmlns:xlink="http://www.w3.org/1999/xlink" xmlns:sketch="http://www.bohemiancoding.com/sketch/ns" viewBox="0 0 500 625" version="1.1" x="0px" y="0px"><title> 17</title><desc>Created with Sketch.</desc><g stroke="none" stroke-width="1" fill="none" fill-rule="evenodd" sketch:type="MSPage"><g sketch:type="MSArtboardGroup" fill="#000000"><path d="M456.5,250 C456.5,135.953199 364.046801,43.5 250,43.5 C135.953199,43.5 43.5,135.953199 43.5,250 C43.5,364.046801 135.953199,456.5 250,456.5 C364.046801,456.5 456.5,364.046801 456.5,250 Z M56.5,250 C56.5,143.132901 143.132901,56.5 250,56.5 C356.867099,56.5 443.5,143.132901 443.5,250 C443.5,356.867099 356.867099,443.5 250,443.5 C143.132901,443.5 56.5,356.867099 56.5,250 Z" sketch:type="MSShapeGroup"/><path d="M205.503875,327.086048 C208.044581,329.637984 212.175804,329.637984 214.716511,327.086048 L358.082832,183.086048 C360.615636,180.542049 360.606561,176.426486 358.062562,173.893682 C355.518563,171.360878 351.403,171.369953 348.870196,173.913952 L210.199809,313.377286 L158.082832,261.029953 C155.550028,258.485953 151.434465,258.476878 148.890466,261.009682 C146.346467,263.542487 146.337392,267.658049 148.870196,270.202048 L205.503875,327.086048 Z" sketch:type="MSShapeGroup"/></g></g><text x="0" y="515" fill="#000000" font-size="5px" font-weight="bold" font-family="'Helvetica Neue', Helvetica, Arial-Unicode, Arial, Sans-serif">Created by Stepan Prokop</text><text x="0" y="520" fill="#000000" font-size="5px" font-weight="bold" font-family="'Helvetica Neue', Helvetica, Arial-Unicode, Arial, Sans-serif">from the Noun Project</text></svg>